<?xml version="1.0" encoding="UTF-8" standalone="no" ?>
<!DOCTYPE svg PUBLIC "-//W3C//DTD SVG 1.1//EN" "http://www.w3.org/Graphics/SVG/1.1/DTD/svg11.dtd">
<svg xmlns="http://www.w3.org/2000/svg" xmlns:xlink="http://www.w3.org/1999/xlink" version="1.1" width="1080" height="1080" viewBox="0 0 1080 1080" xml:space="preserve">
<desc>Created with Fabric.js 5.2.4</desc>
<defs>
</defs>
<rect x="0" y="0" width="100%" height="100%" fill="transparent"></rect>
<g transform="matrix(1 0 0 1 540 540)" id="2c33ef6a-735b-4f63-ae7a-c5e820661a17"  >
<rect style="stroke: none; stroke-width: 1; stroke-dasharray: none; stroke-linecap: butt; stroke-dashoffset: 0; stroke-linejoin: miter; stroke-miterlimit: 4; fill: rgb(255,255,255); fill-rule: nonzero; opacity: 1; visibility: hidden;" vector-effect="non-scaling-stroke"  x="-540" y="-540" rx="0" ry="0" width="1080" height="1080" />
</g>
<g transform="matrix(1 0 0 1 540 540)" id="7b6cdf9c-9b16-4d4e-bb24-288fc456a164"  >
</g>
<g transform="matrix(2.77 0 0 2.77 540 540)"  >
<g style=""   >
		<g transform="matrix(1 0 0 1 0 0)" id="SvgjsG10014"  >
<rect style="stroke: none; stroke-width: 1; stroke-dasharray: none; stroke-linecap: butt; stroke-dashoffset: 0; stroke-linejoin: miter; stroke-miterlimit: 4; fill: rgb(244,233,209); fill-rule: nonzero; opacity: 1;" vector-effect="non-scaling-stroke"  x="-195" y="-133.5" rx="10" ry="10" width="390" height="267" />
</g>
		<g transform="matrix(1.37 0 0 1.37 0 -29.65)" id="SvgjsG10015"  >
<path style="stroke: none; stroke-width: 1; stroke-dasharray: none; stroke-linecap: butt; stroke-dashoffset: 0; stroke-linejoin: miter; stroke-miterlimit: 4; fill: rgb(56,26,16); fill-rule: nonzero; opacity: 1;" vector-effect="non-scaling-stroke"  transform=" translate(-84.01, -78.78)" d="M 83.96 17.36 Q 84.94999999999999 17.36 85.91 17.939999999999998 Q 120.32 39.12 133.45999999999998 47.11 C 134.55899128340943 47.78173735550864 135.22945945936317 48.97494343135848 135.23 50.26 Q 135.25 57.309999999999995 135.26999999999998 78.74 Q 135.29 100.16 135.27999999999997 107.22 C 135.27945086075883 108.50505278736178 134.60898355624823 109.69825731233824 133.50999999999996 110.37 Q 120.37999999999997 118.38000000000001 86.00999999999996 139.61 Q 85.05999999999996 140.20000000000002 84.05999999999996 140.20000000000002 Q 83.05999999999996 140.20000000000002 82.10999999999996 139.62 Q 47.69999999999996 118.44 34.55999999999996 110.45 C 33.4610087165905 109.77826264449136 32.790540540636776 108.5850565686415 32.78999999999996 107.3 Q 32.76999999999995 100.25 32.74999999999996 78.82 Q 32.729999999999954 57.39999999999999 32.73999999999996 50.33999999999999 C 32.74054913924112 49.05494721263822 33.411016443751706 47.86174268766175 34.50999999999996 47.18999999999999 Q 47.62999999999996 39.17999999999999 82.00999999999996 17.949999999999992 Q 82.95999999999997 17.359999999999992 83.95999999999997 17.359999999999992 M 83.97999999999996 32.18999999999999 Q 84.73999999999997 32.18999999999999 85.25999999999996 32.50999999999999 Q 102.78999999999996 43.22999999999999 120.12999999999997 53.85999999999999 C 120.26555998506927 53.94072124794903 120.43444001493066 53.94072124794903 120.56999999999996 53.85999999999999 L 126.97999999999996 49.85999999999999 C 127.01377877822388 49.8402829066824 127.03454731746791 49.804112269522435 127.03454731746791 49.76499999999999 C 127.03454731746791 49.72588773047755 127.01377877822388 49.68971709331759 126.97999999999996 49.669999999999995 Q 109.98999999999997 39.19 84.25999999999996 23.489999999999995 Q 84.14999999999996 23.419999999999995 83.97999999999996 23.419999999999995 Q 83.80999999999996 23.419999999999995 83.69999999999996 23.489999999999995 Q 57.98 39.21 40.99 49.7 C 40.956221221776076 49.7197170933176 40.93545268253205 49.75588773047756 40.93545268253205 49.795 C 40.93545268253205 49.83411226952244 40.956221221776076 49.870282906682405 40.99 49.89 L 47.410000000000004 53.88 C 47.54555998506931 53.96072124794904 47.714440014930695 53.96072124794904 47.85 53.88 Q 65.18 43.24 82.7 32.51 Q 83.22 32.19 83.98 32.19 M 84 47.28 Q 84.85 47.29 85.38 47.61 Q 94.25999999999999 53.019999999999996 107.67999999999999 61.37 C 107.80841087636092 61.44420768433431 107.96525371671214 61.44420768433431 108.08999999999999 61.37 L 114.68999999999998 57.25 C 114.7237787782239 57.230282906682405 114.74454731746793 57.19411226952244 114.74454731746793 57.155 C 114.74454731746793 57.11588773047756 114.7237787782239 57.0797170933176 114.68999999999998 57.06 Q 98.48999999999998 47.02 84.14999999999998 38.38 Q 84.12999999999998 38.370000000000005 84.06999999999998 38.36 L 83.91999999999997 38.36 Q 83.85999999999997 38.37 83.83999999999997 38.38 Q 69.5 47.02 53.3 57.06 C 53.26622122177607 57.0797170933176 53.24545268253205 57.11588773047756 53.24545268253205 57.155 C 53.24545268253205 57.19411226952244 53.26622122177607 57.230282906682405 53.3 57.25 L 59.9 61.37 C 60.02474628328784 61.44420768433431 60.181589123639064 61.44420768433431 60.309999999999995 61.37 Q 73.72999999999999 53.019999999999996 82.61 47.61 Q 83.14 47.28 84 47.28 M 65.85 64.55 C 65.7533673075941 64.61027205073971 65.69464249196572 64.7161114696645 65.69464249196572 64.83 C 65.69464249196572 64.9438885303355 65.7533673075941 65.04972794926029 65.85 65.11 L 83.92999999999999 76.24 C 84.03461251071862 76.30287638336718 84.16538748928137 76.30287638336718 84.27 76.24 L 102.25 65.03 C 102.34663269240589 64.96972794926029 102.40535750803427 64.8638885303355 102.40535750803427 64.75 C 102.40535750803427 64.6361114696645 102.34663269240589 64.53027205073971 102.25 64.47 L 84.18 53.34 C 84.07538748928138 53.27712361663283 83.94461251071863 53.27712361663283 83.84 53.34 z M 129.18 74.72999999999999 C 129.27536633034777 74.79254071745784 129.39737059075372 74.79766883848944 129.49764873482698 74.74335151044977 C 129.5979268789002 74.6890341824101 129.66028363925122 74.5840438418018 129.66 74.46999999999998 L 129.69 55.20999999999998 C 129.69163503547512 55.09740952573963 129.63208938315353 54.99278592844853 129.53445126518642 54.936695945786575 C 129.4368131472193 54.88060596312462 129.31643797521087 54.88187078899208 129.22 54.939999999999976 L 113.56 64.54999999999998 C 113.46740043287944 64.60620866385923 113.41085707942146 64.70667597808537 113.41085707942146 64.81499999999998 C 113.41085707942146 64.9233240219146 113.46740043287944 65.02379133614073 113.56 65.07999999999998 z M 38.91 55.15 C 38.803412566309156 55.08338229671061 38.668767345482316 55.081003894825194 38.55989364230338 55.14381564665919 C 38.45101993912444 55.2066273984932 38.38568160269572 55.32438092956451 38.38999999999999 55.449999999999996 L 38.489999999999995 74.50999999999999 C 38.48943249292395 74.63383490438058 38.556239135247345 74.74818515170922 38.66439320281114 74.80850184323519 C 38.772547270374936 74.86881853476115 38.90494250890573 74.86556164406274 39.01 74.8 L 54.67 65.17999999999999 C 54.769918910731725 65.1164896292939 54.829604877816855 65.00557449594659 54.82756388951293 64.88719717431874 C 54.825522901209 64.76881985269088 54.76204888552532 64.66002816732235 54.660000000000004 64.6 z M 42.66 79.16 C 42.57302405597798 79.21884569035733 42.52175238434532 79.31772282204153 42.52377148263349 79.42271593302627 C 42.52579058092166 79.52770904401102 42.58082590444042 79.62454181040384 42.669999999999995 79.67999999999999 L 81.03999999999999 103.32999999999998 C 81.13643797521088 103.38812921100788 81.2568131472193 103.38939403687534 81.35445126518641 103.33330405421339 C 81.45208938315352 103.27721407155144 81.51163503547511 103.17259047426033 81.50999999999999 103.05999999999999 L 81.50999999999999 81.48 C 81.50808984594006 81.37329065669492 81.451422650718 81.27506751831004 81.35999999999999 81.22 L 60.4 68.3 C 60.301577567553494 68.24069114792938 60.1784224324465 68.24069114792938 60.08 68.3 z M 108.03 68.21 C 107.92538748928138 68.14712361663281 107.79461251071862 68.14712361663281 107.69 68.21 L 87.23 80.96 C 87.13158824445549 81.0191436475237 87.07099163582092 81.12518771263422 87.07000000000001 81.24 L 87.07000000000001 102.78999999999999 C 87.07101756586266 102.90842612618792 87.13541738527312 103.01722605434175 87.23874870705716 103.07509159454081 C 87.34208002884118 103.13295713473987 87.46849595117342 103.13101402196195 87.57000000000001 103.07 L 125.42000000000002 79.47 C 125.5166326924059 79.40972794926029 125.57535750803429 79.3038885303355 125.57535750803429 79.19 C 125.57535750803429 79.0761114696645 125.5166326924059 78.97027205073971 125.42000000000002 78.91 z M 87.07 131.95 C 87.06669096490587 132.06800094657783 87.12861600493964 132.17823998269506 87.23110979328571 132.23680786174998 C 87.33360358163179 132.29537574080487 87.46001761768841 132.29275903388213 87.55999999999999 132.23 L 129.52999999999997 106.05999999999999 C 129.62300012575167 106.00168477774999 129.67961921735463 105.89977041286464 129.67999999999998 105.78999999999999 L 129.67999999999998 83.98 C 129.67959774009853 83.86378597273216 129.6162207389054 83.75692516805171 129.51443543812445 83.70083939007037 C 129.41265013734352 83.64475361208903 129.28845843281337 83.6482602319832 129.18999999999997 83.71000000000001 L 87.21999999999997 109.88000000000001 C 87.12699987424828 109.93831522225001 87.07038078264532 110.04022958713536 87.06999999999996 110.15 z M 38.43999999999999 106.08999999999999 C 38.440380782645335 106.19977041286464 38.4969998742483 106.30168477774998 38.58999999999999 106.35999999999999 L 81.02999999999999 132.51999999999998 C 81.12845843281337 132.58173976801677 81.25265013734354 132.58524638791093 81.35443543812448 132.5291606099296 C 81.45622073890542 132.47307483194828 81.51959774009855 132.3662140272678 81.51999999999998 132.24999999999997 L 81.51999999999998 110.40999999999997 C 81.51961921735463 110.30022958713532 81.46300012575166 110.19831522224997 81.36999999999998 110.13999999999997 L 38.93 83.97 C 38.83154156718661 83.90826023198319 38.70734986265645 83.90475361208904 38.60556456187551 83.96083939007038 C 38.50377926109457 84.0169251680517 38.44040225990144 84.12378597273216 38.44 84.24 z" stroke-linecap="round" />
</g>
		<g transform="matrix(1.35 0 0 1.35 0 93.8)" id="SvgjsG10016"  >
<path style="stroke: none; stroke-width: 1; stroke-dasharray: none; stroke-linecap: butt; stroke-dashoffset: 0; stroke-linejoin: miter; stroke-miterlimit: 4; fill: rgb(56,26,16); fill-rule: nonzero; opacity: 1;" vector-effect="non-scaling-stroke"  transform=" translate(-130.97, -26.3)" d="M 1.68 40 L 1.68 12.600000000000001 L 21.72 12.600000000000001 L 21.72 18.200000000000003 L 7.879999999999999 18.200000000000003 L 7.879999999999999 23.360000000000003 L 20.68 23.360000000000003 L 20.68 28.800000000000004 L 7.879999999999999 28.800000000000004 L 7.879999999999999 34.400000000000006 L 21.759999999999998 34.400000000000006 L 21.759999999999998 40.00000000000001 L 1.6799999999999997 40.00000000000001 z M 39.218 17.8 C 34.578 17.8 31.058000000000003 21.52 31.058000000000003 26.240000000000002 C 31.058000000000003 31.080000000000002 34.578 34.760000000000005 39.418000000000006 34.760000000000005 C 42.778000000000006 34.760000000000005 45.33800000000001 33.00000000000001 46.89800000000001 30.320000000000004 L 51.738000000000014 33.68000000000001 C 49.09800000000001 38.00000000000001 45.058000000000014 40.56000000000001 39.49800000000001 40.56000000000001 C 31.058000000000014 40.56000000000001 24.738000000000014 34.28000000000001 24.738000000000014 26.24000000000001 C 24.738000000000014 18.28000000000001 31.018000000000015 12.04000000000001 39.338000000000015 12.04000000000001 C 44.738000000000014 12.04000000000001 49.018000000000015 14.28000000000001 51.618000000000016 18.88000000000001 L 46.698000000000015 22.28000000000001 C 45.09800000000001 19.640000000000008 42.698000000000015 17.800000000000008 39.21800000000002 17.800000000000008 z M 68.876 40.56 C 60.876000000000005 40.56 54.35600000000001 34.440000000000005 54.35600000000001 26.32 C 54.35600000000001 18.16 60.876000000000005 12.040000000000001 68.876 12.040000000000001 C 77.07600000000001 12.040000000000001 83.396 18.16 83.396 26.28 C 83.396 34.44 77.076 40.56 68.876 40.56 z M 68.876 34.8 C 73.516 34.8 77.07600000000001 31.119999999999997 77.07600000000001 26.279999999999998 C 77.07600000000001 21.519999999999996 73.516 17.799999999999997 68.876 17.799999999999997 C 64.236 17.799999999999997 60.676 21.519999999999996 60.676 26.319999999999997 C 60.676 31.119999999999997 64.236 34.8 68.876 34.8 z M 100.81400000000001 17.8 C 96.174 17.8 92.65400000000001 21.52 92.65400000000001 26.240000000000002 C 92.65400000000001 31.080000000000002 96.174 34.760000000000005 101.01400000000001 34.760000000000005 C 104.37400000000001 34.760000000000005 106.93400000000001 33.00000000000001 108.49400000000001 30.320000000000004 L 113.33400000000002 33.68000000000001 C 110.69400000000002 38.00000000000001 106.65400000000002 40.56000000000001 101.09400000000002 40.56000000000001 C 92.65400000000002 40.56000000000001 86.33400000000002 34.28000000000001 86.33400000000002 26.24000000000001 C 86.33400000000002 18.28000000000001 92.61400000000002 12.04000000000001 100.93400000000001 12.04000000000001 C 106.33400000000002 12.04000000000001 110.614 14.28000000000001 113.21400000000001 18.88000000000001 L 108.29400000000001 22.28000000000001 C 106.69400000000002 19.640000000000008 104.29400000000001 17.800000000000008 100.81400000000001 17.800000000000008 z M 130.472 40.56 C 122.47200000000001 40.56 115.95200000000001 34.440000000000005 115.95200000000001 26.32 C 115.95200000000001 18.16 122.47200000000001 12.040000000000001 130.472 12.040000000000001 C 138.672 12.040000000000001 144.99200000000002 18.16 144.99200000000002 26.28 C 144.99200000000002 34.44 138.67200000000003 40.56 130.472 40.56 z M 130.472 34.8 C 135.112 34.8 138.672 31.119999999999997 138.672 26.279999999999998 C 138.672 21.519999999999996 135.112 17.799999999999997 130.472 17.799999999999997 C 125.83200000000002 17.799999999999997 122.272 21.519999999999996 122.272 26.319999999999997 C 122.272 31.119999999999997 125.83200000000001 34.8 130.472 34.8 z M 159.33 18.28 L 154.77 18.28 L 154.77 25.6 L 159.13000000000002 25.6 C 161.81000000000003 25.6 163.45000000000002 24.080000000000002 163.45000000000002 21.96 C 163.45000000000002 19.84 162.09 18.28 159.33 18.28 z M 154.77 30.68 L 154.77 40 L 148.57000000000002 40 L 148.57000000000002 12.600000000000001 L 160.25000000000003 12.600000000000001 C 166.09000000000003 12.600000000000001 169.69000000000003 16.36 169.69000000000003 21.72 C 169.69000000000003 26 166.85000000000002 29.56 162.21000000000004 30.479999999999997 L 170.93000000000004 40 L 162.85000000000002 40 z M 187.86800000000002 17.8 C 183.22800000000004 17.8 179.70800000000003 21.52 179.70800000000003 26.240000000000002 C 179.70800000000003 31.080000000000002 183.22800000000004 34.760000000000005 188.06800000000004 34.760000000000005 C 191.42800000000005 34.760000000000005 193.98800000000003 33.00000000000001 195.54800000000003 30.320000000000004 L 200.38800000000003 33.68000000000001 C 197.74800000000005 38.00000000000001 193.70800000000003 40.56000000000001 188.14800000000002 40.56000000000001 C 179.70800000000003 40.56000000000001 173.38800000000003 34.28000000000001 173.38800000000003 26.24000000000001 C 173.38800000000003 18.28000000000001 179.66800000000003 12.04000000000001 187.98800000000003 12.04000000000001 C 193.38800000000003 12.04000000000001 197.66800000000003 14.28000000000001 200.26800000000003 18.88000000000001 L 195.34800000000004 22.28000000000001 C 193.74800000000005 19.640000000000008 191.34800000000004 17.800000000000008 187.86800000000005 17.800000000000008 z M 221.446 40 L 221.446 29.28 L 209.846 29.28 L 209.846 40 L 203.64600000000002 40 L 203.64600000000002 12.600000000000001 L 209.846 12.600000000000001 L 209.846 23.6 L 221.446 23.6 L 221.446 12.600000000000001 L 227.646 12.600000000000001 L 227.646 40 L 221.446 40 z M 245.744 40.56 C 237.744 40.56 231.224 34.440000000000005 231.224 26.32 C 231.224 18.16 237.744 12.040000000000001 245.744 12.040000000000001 C 253.944 12.040000000000001 260.264 18.16 260.264 26.28 C 260.264 34.44 253.94400000000002 40.56 245.744 40.56 z M 245.744 34.8 C 250.384 34.8 253.944 31.119999999999997 253.944 26.279999999999998 C 253.944 21.519999999999996 250.384 17.799999999999997 245.744 17.799999999999997 C 241.104 17.799999999999997 237.544 21.519999999999996 237.544 26.319999999999997 C 237.544 31.119999999999997 241.104 34.8 245.744 34.8 z" stroke-linecap="round" />
</g>
</g>
</g>
</svg>